# xmcd CD database file
#
# Track frame offsets:
#	150
#	16967
#	31891
#	53785
#	65763
#	81230
#	96596
#	112958
#	130077
#	145986
#	166581
#	180187
#	196332
#	215245
#
# Disc length: 3392 seconds
#
# Revision: 5
# Processed by: cddbd v1.5.1PL0 Copyright (c) Steve Scherf et al.
# Submitted via: CdAid (MTCDDB.DLL V2003.12.21)
#
DISCID=c00d3e0e
DTITLE=Γιώργος Πολύζος - Τέτοιος σηκώθηκε άνεμος
DYEAR=2005
DGENRE=Psychedelic Rock
TTITLE0=Επιτύμβιο
TTITLE1=Ίχνη
TTITLE2=Στο παραγώνι
TTITLE3=Δε με χωράει
TTITLE4=Μυστικά
TTITLE5=Τόσα πολλά
TTITLE6=Σαν τ' αστέρι
TTITLE7=Η υποψία
TTITLE8=π-λήξη
TTITLE9=Νύχτα χειμώνος
TTITLE10=Η κιθάρα
TTITLE11=Σιωπηλά
TTITLE12=Βουβός
TTITLE13=Έχω στα μάτια μου τον κόσμο
EXTD=ID3G:  17 YEAR: 2005
EXTT0=
EXTT1=
EXTT2=
EXTT3=
EXTT4=
EXTT5=
EXTT6=
EXTT7=
EXTT8=
EXTT9=
EXTT10=
EXTT11=
EXTT12=
EXTT13=
PLAYORDER=
